<svg width="40" height="40" fill="none" xmlns="http://www.w3.org/2000/svg"><path d="M26.995 2.857v.15h4.436a4.136 4.136 0 014.136 4.136v14.743l.064.044a9.842 9.842 0 11-13.7 13.701l-.046-.064H4.287A4.136 4.136 0 01.15 31.43V7.143a4.136 4.136 0 014.136-4.136h4.436V1.43a1.279 1.279 0 112.557 0v1.577h13.158V1.43a1.279 1.279 0 012.558 0v1.428zM8.722 5.715v-.15H4.286a1.579 1.579 0 00-1.579 1.578v4.436H33.01V7.143a1.579 1.579 0 00-1.578-1.578h-4.436v.918a1.279 1.279 0 11-2.558 0v-.918H11.28v.918a1.279 1.279 0 11-2.557 0v-.768zm-5.865 8.422h-.15V31.43a1.579 1.579 0 001.579 1.578h16.345l-.057-.193a9.836 9.836 0 0112.242-12.242l.193.057v-6.494H2.857zm34.438 15.865v0a7.293 7.293 0 10-7.293 7.293v-.149.15a7.302 7.302 0 007.293-7.294z" fill="#00B5E6" stroke="#fff" stroke-width=".3"/><path d="M31.28 29.119v.093l.084.041 2.067 1.033h0a1.278 1.278 0 11-1.143 2.289s0 0 0 0l-2.857-1.429h0a1.28 1.28 0 01-.708-1.144v0-4.286a1.279 1.279 0 112.558 0v3.403zM8.572 18.723h2.857a1.279 1.279 0 110 2.557H8.572a1.279 1.279 0 110-2.557zm12.333.374a1.279 1.279 0 01-.904 2.183h-2.857a1.279 1.279 0 110-2.557h2.857c.34 0 .665.135.904.374zM8.572 25.866h2.857a1.279 1.279 0 110 2.557H8.572a1.279 1.279 0 010-2.557z" fill="#00B5E6" stroke="#fff" stroke-width=".3"/></svg>