<svg width="38" height="44" fill="none" xmlns="http://www.w3.org/2000/svg"><path d="M13.787 17.6a13.698 13.698 0 014.37-2.31V2h8.24v13.29c5.57 1.75 9.612 6.954 9.612 13.102 0 7.584-6.148 13.732-13.732 13.732a13.678 13.678 0 01-8.925-3.296M15.865 2H28.69" stroke="#fff" stroke-width="2.2" stroke-miterlimit="22.926" stroke-linecap="round" stroke-linejoin="round"/><path d="M13.97 26.832c.668.27 1.322.645 2.03.645 1.103 0 2.078-.916 3.182-.916s2.08.916 3.183.916c1.104 0 2.08-.916 3.183-.916 1.104 0 2.08.916 3.183.916 1.104 0 2.08-.916 3.183-.916 1.104 0 2.122.61 3.183.916M13.168 8.985v28.011c0 2.82-2.307 5.127-5.127 5.127s-5.126-2.307-5.126-5.127V8.986h10.253zM2 8.985h12.084M3.83 35.167h1.74m-1.74-5.493h1.74m-1.74-5.493h1.74m-1.74-5.218h8.88" stroke="#fff" stroke-width="2.2" stroke-miterlimit="22.926" stroke-linecap="round" stroke-linejoin="round"/></svg>