<svg width="22" height="23" fill="none" xmlns="http://www.w3.org/2000/svg"><path d="M2.41 11H0v7h1.288v-1.93H2.41c1.487 0 2.418-.97 2.418-2.53 0-1.57-.93-2.54-2.418-2.54zm-.072 3.75h-1.05v-2.43h1.05c.787 0 1.185.45 1.185 1.22 0 .76-.398 1.21-1.185 1.21zM5.985 18h2.529c1.82 0 3.07-1.38 3.07-3.5s-1.25-3.5-3.07-3.5H5.985v7zm1.288-1.33v-4.34H8.45c1.106 0 1.83.83 1.83 2.17 0 1.34-.724 2.17-1.83 2.17H7.273zM17 12.3V11h-4.207v7h1.289v-2.55h2.576v-1.3h-2.576V12.3H17z" fill="#00BAEC"/><path fill-rule="evenodd" clip-rule="evenodd" d="M5 2v6H3V0h13.089L22 6v17H3v-2h17V8h-6V2H5z" fill="#00BAEC"/></svg>