<svg width="39" height="39" fill="none" xmlns="http://www.w3.org/2000/svg"><path d="M35.864 21.196C37.892 18.873 39 15.92 39 12.787c0-3.428-1.327-6.643-3.736-9.052C32.856 1.327 29.641 0 26.213 0c-3.429 0-6.644 1.327-9.052 3.735L3.735 17.16A12.717 12.717 0 000 26.213c0 3.428 1.327 6.643 3.735 9.052A12.718 12.718 0 0012.787 39a12.71 12.71 0 008.41-3.136A10.347 10.347 0 0028.621 39C34.344 39 39 34.344 39 28.622c0-2.908-1.202-5.54-3.136-7.426zM18.884 5.46a10.29 10.29 0 017.329-3.021 10.29 10.29 0 017.328 3.021 10.29 10.29 0 013.022 7.328 10.29 10.29 0 01-2.634 6.92 10.316 10.316 0 00-5.307-1.464c-2.424 0-4.655.835-6.423 2.232l-9.166-9.165 5.851-5.851zm-6.097 31.104A10.29 10.29 0 015.46 33.54c-4.041-4.04-4.041-10.616 0-14.657l5.85-5.85 9.166 9.165a10.328 10.328 0 00-2.232 6.423c0 1.938.535 3.753 1.463 5.307a10.29 10.29 0 01-6.919 2.633zm7.894-7.941c0-3.965 2.92-7.26 6.722-7.848V36.47c-3.802-.588-6.722-3.883-6.722-7.847zm9.16 7.847V20.774c3.801.588 6.721 3.883 6.721 7.848 0 3.964-2.92 7.259-6.722 7.847zm-9.03-27.36a1.219 1.219 0 010-1.723 7.583 7.583 0 015.402-2.225c2.049 0 3.967.79 5.401 2.225a1.219 1.219 0 11-1.723 1.723 5.161 5.161 0 00-3.678-1.51 5.161 5.161 0 00-3.679 1.51 1.215 1.215 0 01-1.723 0z" fill="#fff"/></svg>