<svg width="40" height="42" fill="none" xmlns="http://www.w3.org/2000/svg"><mask id="path-1-inside-1_139_661" fill="#fff"><path d="M38.614 34.549h-3.122v-2.773h1.735V26.23h-5.545v1.72h-2.773v-3.106a1.386 1.386 0 011.386-1.386h8.319A1.386 1.386 0 0140 24.844v8.319a1.386 1.386 0 01-1.386 1.386z"/><path d="M31.682 41.48h-8.319a1.386 1.386 0 01-1.386-1.386v-8.318a1.386 1.386 0 011.386-1.386h8.319a1.387 1.387 0 011.386 1.386v8.318a1.386 1.386 0 01-1.386 1.387zm-6.932-2.772h5.545v-5.545H24.75v5.545z"/><path fill-rule="evenodd" clip-rule="evenodd" d="M18.634 25.393a5.873 5.873 0 100-11.745 5.873 5.873 0 000 11.745zm0 3a8.873 8.873 0 100-17.745 8.873 8.873 0 000 17.745z"/><path d="M18.634 38.819h-3.09a2.77 2.77 0 01-1.194-.271l-.003-.002-.004-.002-.006-.002a2.768 2.768 0 01-1.51-1.955l-.707-3.494c-.63-.305-1.24-.651-1.826-1.037l-.005-.003-3.355 1.137a2.84 2.84 0 01-.887.139 2.75 2.75 0 01-1.09-.219l-.012-.005a2.743 2.743 0 01-1.296-1.162L.377 26.285a2.768 2.768 0 01-.34-1.842 2.771 2.771 0 01.908-1.638l2.662-2.329a13.737 13.737 0 010-2.135l-2.662-2.33a2.771 2.771 0 01-.885-2.657l.01-.047c.062-.27.165-.532.307-.775l3.272-5.656a2.734 2.734 0 011.626-1.281l.01-.003a2.727 2.727 0 01.762-.103 2.84 2.84 0 01.887.139l3.355 1.137.005-.003a16.02 16.02 0 011.825-1.037l.707-3.494a2.77 2.77 0 011.48-1.94l.018-.008.006-.003.007-.004.006-.003.007-.003A2.77 2.77 0 0115.544 0h6.544a2.772 2.772 0 012.435 1.451l.036.068a2.796 2.796 0 01.246.713l.707 3.494c.63.305 1.24.651 1.825 1.037l.005.003 3.355-1.137a2.84 2.84 0 01.438-.105l.084-.012a2.956 2.956 0 011.171.094l.014.004a2.736 2.736 0 011.58 1.267l3.27 5.656a2.773 2.773 0 01-.568 3.48l-2.63 2.304c.007.454.01.91.01 1.093 0 .169-.003.576-.009.998h-2.82a12.392 12.392 0 00-.152-3.168v-.007l.43-.375 3.341-2.939-3.272-5.656L26.83 9.87h-.014a12.988 12.988 0 00-3.743-2.177l-.984-4.921h-6.544l-.985 4.921a12.988 12.988 0 00-3.743 2.177h-.014L6.047 8.263l-3.272 5.656 3.341 2.94.43.374v.014a12.326 12.326 0 000 4.34l-.43.373-3.34 2.94 3.271 5.656 4.755-1.608h.014a12.984 12.984 0 003.743 2.177l.985 4.921h3.09v2.773z"/></mask><path d="M38.614 34.549h-3.122v-2.773h1.735V26.23h-5.545v1.72h-2.773v-3.106a1.386 1.386 0 011.386-1.386h8.319A1.386 1.386 0 0140 24.844v8.319a1.386 1.386 0 01-1.386 1.386z" fill="#00B5E5"/><path d="M31.682 41.48h-8.319a1.386 1.386 0 01-1.386-1.386v-8.318a1.386 1.386 0 011.386-1.386h8.319a1.387 1.387 0 011.386 1.386v8.318a1.386 1.386 0 01-1.386 1.387zm-6.932-2.772h5.545v-5.545H24.75v5.545z" fill="#00B5E5"/><path fill-rule="evenodd" clip-rule="evenodd" d="M18.634 25.393a5.873 5.873 0 100-11.745 5.873 5.873 0 000 11.745zm0 3a8.873 8.873 0 100-17.745 8.873 8.873 0 000 17.745z" fill="#00B5E6"/><path d="M18.634 38.819h-3.09a2.77 2.77 0 01-1.194-.271l-.003-.002-.004-.002-.006-.002a2.768 2.768 0 01-1.51-1.955l-.707-3.494c-.63-.305-1.24-.651-1.826-1.037l-.005-.003-3.355 1.137a2.84 2.84 0 01-.887.139 2.75 2.75 0 01-1.09-.219l-.012-.005a2.743 2.743 0 01-1.296-1.162L.377 26.285a2.768 2.768 0 01-.34-1.842 2.771 2.771 0 01.908-1.638l2.662-2.329a13.737 13.737 0 010-2.135l-2.662-2.33a2.771 2.771 0 01-.885-2.657l.01-.047c.062-.27.165-.532.307-.775l3.272-5.656a2.734 2.734 0 011.626-1.281l.01-.003a2.727 2.727 0 01.762-.103 2.84 2.84 0 01.887.139l3.355 1.137.005-.003a16.02 16.02 0 011.825-1.037l.707-3.494a2.77 2.77 0 011.48-1.94l.018-.008.006-.003.007-.004.006-.003.007-.003A2.77 2.77 0 0115.544 0h6.544a2.772 2.772 0 012.435 1.451l.036.068a2.796 2.796 0 01.246.713l.707 3.494c.63.305 1.24.651 1.825 1.037l.005.003 3.355-1.137a2.84 2.84 0 01.438-.105l.084-.012a2.956 2.956 0 011.171.094l.014.004a2.736 2.736 0 011.58 1.267l3.27 5.656a2.773 2.773 0 01-.568 3.48l-2.63 2.304c.007.454.01.91.01 1.093 0 .169-.003.576-.009.998h-2.82a12.392 12.392 0 00-.152-3.168v-.007l.43-.375 3.341-2.939-3.272-5.656L26.83 9.87h-.014a12.988 12.988 0 00-3.743-2.177l-.984-4.921h-6.544l-.985 4.921a12.988 12.988 0 00-3.743 2.177h-.014L6.047 8.263l-3.272 5.656 3.341 2.94.43.374v.014a12.326 12.326 0 000 4.34l-.43.373-3.34 2.94 3.271 5.656 4.755-1.608h.014a12.984 12.984 0 003.743 2.177l.985 4.921h3.09v2.773z" fill="#00B5E5"/><path d="M38.614 34.549h-3.122v-2.773h1.735V26.23h-5.545v1.72h-2.773v-3.106a1.386 1.386 0 011.386-1.386h8.319A1.386 1.386 0 0140 24.844v8.319a1.386 1.386 0 01-1.386 1.386z" stroke="#fff" stroke-width=".6" mask="url(#path-1-inside-1_139_661)"/><path d="M31.682 41.48h-8.319a1.386 1.386 0 01-1.386-1.386v-8.318a1.386 1.386 0 011.386-1.386h8.319a1.387 1.387 0 011.386 1.386v8.318a1.386 1.386 0 01-1.386 1.387zm-6.932-2.772h5.545v-5.545H24.75v5.545z" stroke="#fff" stroke-width=".6" mask="url(#path-1-inside-1_139_661)"/><path clip-rule="evenodd" d="M18.634 25.393a5.873 5.873 0 100-11.745 5.873 5.873 0 000 11.745zm0 3a8.873 8.873 0 100-17.745 8.873 8.873 0 000 17.745z" stroke="#fff" stroke-width=".6" mask="url(#path-1-inside-1_139_661)"/><path d="M18.634 38.819h-3.09a2.77 2.77 0 01-1.194-.271l-.003-.002-.004-.002-.006-.002a2.768 2.768 0 01-1.51-1.955l-.707-3.494c-.63-.305-1.24-.651-1.826-1.037l-.005-.003-3.355 1.137a2.84 2.84 0 01-.887.139 2.75 2.75 0 01-1.09-.219l-.012-.005a2.743 2.743 0 01-1.296-1.162L.377 26.285a2.768 2.768 0 01-.34-1.842 2.771 2.771 0 01.908-1.638l2.662-2.329a13.737 13.737 0 010-2.135l-2.662-2.33a2.771 2.771 0 01-.885-2.657l.01-.047c.062-.27.165-.532.307-.775l3.272-5.656a2.734 2.734 0 011.626-1.281l.01-.003a2.727 2.727 0 01.762-.103 2.84 2.84 0 01.887.139l3.355 1.137.005-.003a16.02 16.02 0 011.825-1.037l.707-3.494a2.77 2.77 0 011.48-1.94l.018-.008.006-.003.007-.004.006-.003.007-.003A2.77 2.77 0 0115.544 0h6.544a2.772 2.772 0 012.435 1.451l.036.068a2.796 2.796 0 01.246.713l.707 3.494c.63.305 1.24.651 1.825 1.037l.005.003 3.355-1.137a2.84 2.84 0 01.438-.105l.084-.012a2.956 2.956 0 011.171.094l.014.004a2.736 2.736 0 011.58 1.267l3.27 5.656a2.773 2.773 0 01-.568 3.48l-2.63 2.304c.007.454.01.91.01 1.093 0 .169-.003.576-.009.998h-2.82a12.392 12.392 0 00-.152-3.168v-.007l.43-.375 3.341-2.939-3.272-5.656L26.83 9.87h-.014a12.988 12.988 0 00-3.743-2.177l-.984-4.921h-6.544l-.985 4.921a12.988 12.988 0 00-3.743 2.177h-.014L6.047 8.263l-3.272 5.656 3.341 2.94.43.374v.014a12.326 12.326 0 000 4.34l-.43.373-3.34 2.94 3.271 5.656 4.755-1.608h.014a12.984 12.984 0 003.743 2.177l.985 4.921h3.09v2.773z" stroke="#fff" stroke-width=".6" mask="url(#path-1-inside-1_139_661)"/></svg>