<svg width="42" height="43" fill="none" xmlns="http://www.w3.org/2000/svg"><path d="M28.754 4.363a4.615 4.615 0 00-3.2 0l-8.835 3.268a.513.513 0 00-.334.48v5.73a9.741 9.741 0 00-3.077 0V8.108a3.59 3.59 0 012.344-3.366l8.835-3.266a7.692 7.692 0 015.334 0l8.834 3.266A3.59 3.59 0 0141 8.109v21.887a3.59 3.59 0 01-2.345 3.368l-8.242 3.044c.216-.599.33-1.239.33-1.901v-1.5l6.846-2.529a.512.512 0 00.334-.482V8.109a.514.514 0 00-.334-.48l-8.835-3.266zm-8.226 8.062a1.539 1.539 0 111.005-2.909l5.453 1.887a.514.514 0 00.334 0l5.436-1.887a1.54 1.54 0 111.01 2.909l-5.437 1.885a3.59 3.59 0 01-2.349 0l-5.454-1.885h.002zM8.221 26.784a1.539 1.539 0 011.005-2.909l5.62 1.945 5.604-1.943a1.538 1.538 0 111.005 2.907l-5.07 1.758v5.538a1.538 1.538 0 01-3.077 0v-5.538L8.22 26.784zm9.292-10.538a7.692 7.692 0 00-5.334 0l-8.834 3.266A3.59 3.59 0 001 22.878v11.63a3.59 3.59 0 002.345 3.369l8.835 3.264a7.692 7.692 0 005.333 0l8.835-3.266a3.59 3.59 0 002.344-3.368V22.876a3.59 3.59 0 00-2.344-3.366l-8.835-3.266v.002zm-4.267 2.886a4.615 4.615 0 013.2 0l8.835 3.266a.513.513 0 01.334.48v11.63a.513.513 0 01-.334.483l-8.835 3.264a4.615 4.615 0 01-3.2 0l-8.835-3.266a.513.513 0 01-.334-.482V22.876a.513.513 0 01.334-.48l8.835-3.266v.002z" fill="#00B5E5" stroke="#fff" stroke-width=".8"/></svg>