<svg width="40" height="39" fill="none" xmlns="http://www.w3.org/2000/svg"><path d="M33.343 11.214v.146l.138.045c6.53 2.116 8.508 10.463 3.51 15.264l-.061.06v9.863c0 .68-.553 1.234-1.235 1.234h-.035c-.109 0-.157 0-.24-.023-.1-.03-.248-.096-.547-.258-.352-.191-.89-.5-1.767-1.005-.602-.346-1.363-.785-2.334-1.34l-.1-.056-.099.057-4.31 2.463a1.236 1.236 0 01-1.848-1.072v-5.223H3.116A2.92 2.92 0 01.2 28.453V3.116A2.92 2.92 0 013.116.2h27.31a2.92 2.92 0 012.917 2.916v8.098zm-2.67-.252h.2V3.116c0-.246-.2-.446-.447-.446H3.116c-.246 0-.446.2-.446.446v25.337c0 .246.2.446.446.446h21.3v-2.171l-.062-.059a9.101 9.101 0 01-2.809-6.58c0-5.032 4.095-9.127 9.128-9.127zm3.488 23.33l.3.171v-.344l-.001-5.42v-.3l-.277.115a9.118 9.118 0 01-7.02 0l-.278-.116v6.065l.3-.17 2.875-1.644c.38-.217.846-.217 1.225 0l2.876 1.643zm-4.715-13.784l.167.11.11-.166 2.075-3.11h0a1.235 1.235 0 012.055 1.37l.156.104-.156-.104-2.87 4.304c-.238.357-.63.55-1.03.55a1.01 1.01 0 01-.313-.036 1.82 1.82 0 01-.399-.194c-.235-.141-.556-.358-1.054-.694-.29-.196-.64-.432-1.07-.718a1.235 1.235 0 01-.342-1.713l-.166-.11.166.11a1.235 1.235 0 011.713-.342l.958.639zm-5.43-.419a6.665 6.665 0 006.657 6.658 6.665 6.665 0 006.657-6.658 6.665 6.665 0 00-6.657-6.657 6.665 6.665 0 00-6.658 6.657z" fill="#00B5E6" stroke="#fff" stroke-width=".4"/><path fill="#00B5E6" stroke="#fff" stroke-width=".4" d="M7.734 7.734h14.13v2.649H7.734zm0 6.099h9.914v2.65H7.734v-2.65zm0 6.099h6.327v2.649H7.734z"/></svg>