<svg width="44" height="40" fill="none" xmlns="http://www.w3.org/2000/svg"><path d="M30.913 25.836a5.5 5.5 0 01-1.952-2.837 7.154 7.154 0 00-13.75 0 5.5 5.5 0 01-1.952 2.837 7.138 7.138 0 00-2.802 5.873c.101 3.783 3.188 6.862 6.97 6.955a7.133 7.133 0 002.725-.465 5.43 5.43 0 013.868 0 7.135 7.135 0 002.724.465c3.783-.093 6.87-3.172 6.97-6.955a7.139 7.139 0 00-2.801-5.873zM6.093 23.44c2.26 0 4.093-2.344 4.093-5.237 0-2.893-1.832-5.238-4.093-5.238C3.833 12.965 2 15.31 2 18.203c0 2.893 1.833 5.238 4.093 5.238zm31.814 0c2.26 0 4.093-2.344 4.093-5.237 0-2.893-1.832-5.238-4.093-5.238-2.26 0-4.093 2.345-4.093 5.238 0 2.893 1.833 5.238 4.093 5.238zM15.37 12.172c2.26 0 4.093-2.345 4.093-5.238 0-2.892-1.833-5.237-4.093-5.237s-4.093 2.345-4.093 5.237c0 2.893 1.832 5.238 4.093 5.238zm13.55 0c2.26 0 4.093-2.345 4.093-5.238 0-2.892-1.832-5.237-4.093-5.237-2.26 0-4.093 2.345-4.093 5.237 0 2.893 1.833 5.238 4.093 5.238z" stroke="#fff" stroke-width="2.5" stroke-miterlimit="10"/></svg>