<svg width="150" height="45" fill="none" xmlns="http://www.w3.org/2000/svg"><path d="M6.456 17.916l2.036 3.552c1.495-3.314 4.073-7.105 7.712-11.351 3.141 3.64 5.481 6.954 7.02 9.922l3.92 1.148 2.448-3.77C26.104 10.398 20.06 3.921 16.204 0 12.088 4.203 5.437 11.33 2.101 18.934l4.355-1.018z" fill="#004773"/><path d="M32.235 25.606c-.13-1.083-.368-2.145-.671-3.228l-2.535 3.878-3.856-1.127c.087.433.173.867.217 1.278l.021.109.022.108c.065.477.108.953.108 1.43 0 3.9-2.383 7.235-5.784 8.622L17.57 40.25l3.033 3.401c6.824-1.906 11.828-8.167 11.828-15.597a22.819 22.819 0 00-.195-2.448z" fill="#0087BF"/><path d="M12.175 40.748l2.166-3.53c-4.268-.867-7.474-4.637-7.474-9.143 0-.216 0-.433.022-.65l-2.6-4.527-3.79.888c-.13.606-.239 1.235-.304 1.841A15.35 15.35 0 000 28.075c0 8.644 6.759 15.706 15.294 16.183l-3.12-3.51z" fill="#00B5E6"/><path d="M143.648 23.986c-1.387 0-2.191-.943-2.191-1.858v-4.55c0-1.22.859-2.024 2.191-2.024h5.048l1.221-2.94h-6.269c-4.438 0-6.019 2.357-6.019 4.355v5.436c0 2.08 1.581 4.494 6.019 4.494H150v-2.913h-6.352zm-28.432-11.372h-7.434c-4.41 0-5.991 2.357-5.991 4.355v7.017h-1.748V26.9h16.893v-2.913h-1.748V12.614h.028zm-3.8 11.372h-5.825v-6.38c0-1.248.832-2.024 2.191-2.024h3.606v8.404h.028zm-38.584-2.413l-4.688-8.96h-4.466V26.9h3.69v-9.32l3.8 7.212h3.356l3.772-7.268V26.9h3.717V12.614h-4.466l-4.715 8.96zm16.338.527v-1.082h7.045v-2.635H89.17v-2.829h7.24l1.22-2.94H85.397v9.764c0 2.08 1.554 4.493 5.964 4.493h6.352V23.96h-6.352c-1.442 0-2.191-.971-2.191-1.859zm-35.367-9.736h-1.386c-2.22 0-4.161 1.331-4.605 3.162l-2.746 11.317h3.772l.5-2.136h7.544l.472 2.136h3.828l-2.746-11.317c-.444-1.83-2.386-3.162-4.633-3.162zm-3.8 9.486l1.22-5.215c.14-.665.833-1.165 1.637-1.165h.527c.805 0 1.498.5 1.637 1.165l1.193 5.215h-6.214zm73.479-.36v-8.876h-3.689v14.285h3.717l7.101-9.93v9.93h3.717V12.614h-4.272l-6.574 8.876z" fill="#004773"/><path d="M46.342 38.634v-3.578h-1.276v5.132h1.442l2.524-3.634v3.634h1.304v-5.132h-1.47l-2.524 3.578zm11.206-1.528h-2.385v-2.053H53.83v5.132h1.332v-2.192h2.385v2.192h1.331v-5.132h-1.33v2.053zm11.401.61c-.222-.194-.416-.305-.555-.333.138-.055.25-.11.333-.166.083-.083.194-.194.305-.333l.333-.527c.138-.194.25-.305.333-.36.083-.028.277-.056.554-.056h.36v-.888h-.61c-.47 0-.804.056-.998.167-.194.11-.416.333-.666.693l-.582.916c-.083.138-.167.194-.222.25a1.048 1.048 0 01-.388.055V35.08H65.87v2.053c-.195 0-.333-.028-.389-.056-.055-.028-.138-.11-.222-.25l-.582-.915c-.25-.36-.472-.61-.666-.693-.194-.111-.527-.167-.998-.167h-.61v.888h.36c.277 0 .471.028.555.055.083.028.194.167.333.36l.332.528c.111.166.222.277.306.333a.632.632 0 00.332.166c-.138.028-.332.139-.554.333a4.146 4.146 0 00-.694.804l-1.22 1.692h1.553l1.082-1.525c.222-.333.416-.527.555-.61.138-.084.332-.111.61-.111v2.246h1.276v-2.246c.277 0 .5.027.61.11.139.084.305.278.555.61l1.082 1.526h1.553l-1.22-1.692c-.389-.332-.638-.61-.86-.804zm6.241.916v-3.579h-1.276v5.132h1.442l2.524-3.634v3.634h1.304v-5.132h-1.442l-2.552 3.579zm11.29-1.526h-2.386v-2.053h-1.332v5.132h1.332v-2.192h2.385v2.192h1.332v-5.132h-1.332v2.053zm6.296 1.526v-3.579H91.5v5.132h1.442l2.524-3.634v3.634h1.276v-5.132H95.3l-2.524 3.579zm12.454-3.356c-.333-.167-.915-.25-1.692-.25h-2.857v6.88h1.332v-1.748h1.359c.832 0 1.442-.084 1.83-.278.389-.194.555-.527.555-1.026v-2.663c-.027-.416-.194-.749-.527-.915zm-.804 3.55a.412.412 0 01-.222.389c-.139.083-.388.11-.749.11h-1.47v-3.411h1.442c.361 0 .638.027.777.083.139.055.194.166.194.333v2.496h.028zm6.213-.194v-3.579h-1.276v5.132h1.443l2.552-3.634v3.634h1.276v-5.132h-1.443l-2.552 3.579zm11.512-1.526h-2.386v-2.053h-1.331v5.132h1.331v-2.192h2.386v2.192h1.331v-5.132h-1.331v2.053zm7.184-2.053c-.805 0-1.359.083-1.692.25-.333.166-.499.471-.499.943v3.994h1.303v-3.855c0-.167.056-.278.194-.333.139-.056.389-.083.777-.083h1.248v-.888h-1.331v-.028z" fill="#00B5E6"/></svg>