<svg width="40" height="40" fill="none" xmlns="http://www.w3.org/2000/svg"><path d="M34.152 9.603h.299l-.18-.24a17.856 17.856 0 00-9.859-6.616l-.38-.097.218.326c1.246 1.86 2.09 4.33 2.626 6.513l.028.114h7.247zm-9.549 0h.195l-.05-.188C24.203 7.358 23.506 5.62 22.7 4.34c-.426-.679-.876-1.212-1.328-1.578-.452-.365-.918-.57-1.372-.57-.454 0-.92.205-1.372.57-.452.366-.901.899-1.328 1.578-.805 1.28-1.502 3.016-2.049 5.074l-.05.188h9.403zM15.75 2.976l.218-.326-.38.097a17.856 17.856 0 00-9.86 6.616l-.179.24h7.547l.028-.114c.537-2.183 1.38-4.652 2.626-6.513zm20.014 8.75l-.043-.08H4.28l-.043.081A17.697 17.697 0 002.194 20c0 2.985.74 5.8 2.042 8.273l.043.08H35.72l.043-.08A17.697 17.697 0 0037.806 20c0-2.985-.74-5.8-2.042-8.273zm-20.368 18.67h-.195l.05.19c.546 2.056 1.244 3.794 2.049 5.073.427.679.876 1.212 1.328 1.578.452.365.918.57 1.372.57.454 0 .92-.205 1.372-.57.452-.366.902-.899 1.328-1.578.805-1.28 1.502-3.016 2.049-5.074l.05-.188h-9.403zm-2.272.115l-.028-.114H5.55l.18.24a17.856 17.856 0 009.859 6.616l.38.097-.218-.326c-1.246-1.861-2.09-4.328-2.626-6.513zm11.126 6.513l-.218.326.38-.097a17.856 17.856 0 009.86-6.616l.179-.24h-7.547l-.028.114c-.537 2.184-1.38 4.653-2.626 6.513zM.15 20C.15 9.071 9.07.15 20 .15 30.929.15 39.85 9.07 39.85 20c0 10.929-8.92 19.85-19.85 19.85C9.071 39.85.15 30.93.15 20z" fill="#00B5E6" stroke="#fff" stroke-width=".3"/><path d="M11.647 24.688a1.022 1.022 0 01-2.044 0v-9.375a1.022 1.022 0 012.044 0v9.374zm7.373-2.344c0-.73-.593-1.322-1.322-1.322a3.37 3.37 0 01-3.366-3.366 3.37 3.37 0 013.366-3.365c.899 0 1.744.35 2.38.985a1.022 1.022 0 11-1.446 1.445 1.323 1.323 0 10-.935 2.257 3.37 3.37 0 013.366 3.366 3.37 3.37 0 01-3.365 3.365c-.9 0-1.744-.35-2.38-.985a1.022 1.022 0 111.445-1.445 1.323 1.323 0 002.257-.935zm11.418 0a3.37 3.37 0 01-3.365 3.365 3.37 3.37 0 01-3.366-3.365v-4.688a3.37 3.37 0 013.366-3.365 3.37 3.37 0 013.365 3.365v4.688zm-3.365-6.01c-.73 0-1.322.593-1.322 1.322v4.688a1.323 1.323 0 002.644 0v-4.688c0-.729-.593-1.322-1.322-1.322z" fill="#00B5E6" stroke="#fff" stroke-width=".3"/></svg>