<svg width="40" height="40" fill="none" xmlns="http://www.w3.org/2000/svg"><path d="M30.57 13.846v.2h5.322a3.912 3.912 0 013.908 3.908V30.77a3.913 3.913 0 01-3.906 3.908h-1.216v3.782a1.34 1.34 0 01-2.142 1.071h0L26.1 34.717l-.053-.04h-8.093a3.912 3.912 0 01-3.908-3.908v-4.63l-.32.24-5.23 3.922a1.338 1.338 0 01-2.142-1.07v-4.816H4.615A4.415 4.415 0 01.2 20V4.615A4.415 4.415 0 014.615.2h21.539a4.415 4.415 0 014.415 4.415v9.231zM9.03 26.154v.4l.32-.24 5.74-4.308s0 0 0 0c.231-.174.513-.268.802-.268h10.262A1.739 1.739 0 0027.892 20V4.615a1.738 1.738 0 00-1.738-1.738H4.615a1.738 1.738 0 00-1.738 1.738V20a1.738 1.738 0 001.738 1.738h3.077a1.338 1.338 0 011.339 1.339v3.077zm22.65 9.39l.32.24V33.34A1.339 1.339 0 0133.339 32h2.553a1.23 1.23 0 001.231-1.23V17.953a1.23 1.23 0 00-1.23-1.23h-5.324V20a4.415 4.415 0 01-4.415 4.415h-.002l-9.23.068-.199.002v6.285a1.23 1.23 0 001.23 1.224h8.538c.29 0 .571.094.803.267h0l4.386 3.284z" fill="#00B5E6" stroke="#fff" stroke-width=".4"/><path d="M7.892 7.892h14.985v2.677H7.892V7.892zm0 6.154h7.293v2.677H7.892v-2.677z" fill="#00B5E6" stroke="#fff" stroke-width=".4"/></svg>