<?xml version="1.0" encoding="utf-8"?><svg viewBox="0 0 44 44" xmlns="http://www.w3.org/2000/svg" xmlns:xlink="http://www.w3.org/1999/xlink"><style>:root>svg{display:none}:root>svg:target{display:block}</style><svg fill="none" viewBox="0 0 37 42" id="biology" xmlns="http://www.w3.org/2000/svg"><path d="M23.422 26.393L11.809 14.78a3.285 3.285 0 010-4.645l2.322-2.323a3.285 3.285 0 014.645 0L30.39 19.425M6.002 6.651l4.645-4.645M12.97 8.974L8.325 4.329M35 34.687h-6.57M21.862 40.6v-5.913h-9.854v5.912M2.154 40.6H35" stroke="#fff" stroke-width="2.5" stroke-miterlimit="10" stroke-linecap="round" stroke-linejoin="round"/><path d="M15.293 18.264h-4.927a8.212 8.212 0 000 16.423h1.642M21.099 28.715l11.613-11.612" stroke="#fff" stroke-width="2.5" stroke-miterlimit="10" stroke-linecap="round" stroke-linejoin="round"/></svg><svg viewBox="0 0 13 10" id="check" xmlns="http://www.w3.org/2000/svg"><path d="M4.333 6.988L1.59 4.244.411 5.423l3.922 3.922 8.09-8.089L11.244.078l-6.91 6.91z"/></svg><svg fill="none" viewBox="0 0 38 44" id="clean" xmlns="http://www.w3.org/2000/svg"><path d="M18.909 42.89c-9.62-1.248-17.092-9.51-17.092-19.46V7.176L18.91 1.11 36 7.176V23.43c0 9.95-7.472 18.212-17.091 19.46z" stroke="#fff" stroke-width="2.2" stroke-miterlimit="22.926" stroke-linecap="round" stroke-linejoin="round"/><path d="M16.087 12h5.826v7.087H29v5.826h-7.087V32h-5.826v-7.087H9v-5.826h7.087V12z" stroke="#fff" stroke-width="2.2" stroke-miterlimit="22.926" stroke-linecap="round" stroke-linejoin="round"/></svg><svg fill="none" viewBox="0 0 21 21" id="close" xmlns="http://www.w3.org/2000/svg"><path d="M.354.646l19.707 19.708M.504 20.354L20.211.646"/></svg><svg fill="none" viewBox="0 0 40 40" id="date" xmlns="http://www.w3.org/2000/svg"><path d="M26.995 2.857v.15h4.436a4.136 4.136 0 014.136 4.136v14.743l.064.044a9.842 9.842 0 11-13.7 13.701l-.046-.064H4.287A4.136 4.136 0 01.15 31.43V7.143a4.136 4.136 0 014.136-4.136h4.436V1.43a1.279 1.279 0 112.557 0V3.007H24.437V1.43a1.279 1.279 0 012.558 0v1.428zM8.722 5.715v-.15H4.286a1.579 1.579 0 00-1.579 1.578v4.436H33.01V7.143a1.579 1.579 0 00-1.578-1.578h-4.436v.918a1.279 1.279 0 11-2.558 0v-.918H11.28v.918a1.279 1.279 0 11-2.557 0v-.768zm-5.865 8.422h-.15V31.43a1.579 1.579 0 001.579 1.578h16.345l-.057-.193a9.836 9.836 0 0112.242-12.242l.193.057v-6.494H2.857zm34.438 15.865v0a7.293 7.293 0 10-7.293 7.293v-.149.15a7.302 7.302 0 007.293-7.294z" fill="#00B5E6" stroke="#fff" stroke-width=".3"/><path d="M31.28 29.119v.093l.084.041 2.067 1.033h0a1.278 1.278 0 11-1.143 2.289s0 0 0 0l-2.857-1.429h0a1.28 1.28 0 01-.708-1.144v0-4.286a1.279 1.279 0 112.558 0v3.403zM8.572 18.723h2.857a1.279 1.279 0 110 2.557H8.572a1.279 1.279 0 110-2.557zM20.905 19.097a1.279 1.279 0 01-.904 2.183h-2.857a1.279 1.279 0 110-2.557h2.857c.34 0 .665.135.904.374zM8.572 25.866h2.857a1.279 1.279 0 110 2.557H8.572a1.279 1.279 0 010-2.557z" fill="#00B5E6" stroke="#fff" stroke-width=".3"/></svg><svg fill="none" viewBox="0 0 40 40" id="iso" xmlns="http://www.w3.org/2000/svg"><path d="M34.152 9.603h.299l-.18-.24a17.856 17.856 0 00-9.859-6.616l-.38-.097.218.326c1.246 1.86 2.09 4.33 2.626 6.513l.028.114h7.247zm-9.549 0h.195l-.05-.188C24.203 7.358 23.506 5.62 22.7 4.34c-.426-.679-.876-1.212-1.328-1.578-.452-.365-.918-.57-1.372-.57-.454 0-.92.205-1.372.57-.452.366-.901.899-1.328 1.578-.805 1.28-1.502 3.016-2.049 5.074l-.05.188H24.604zM15.75 2.976l.218-.326-.38.097a17.856 17.856 0 00-9.86 6.616l-.179.24h7.547l.028-.114c.537-2.183 1.38-4.652 2.626-6.513zm20.014 8.75l-.043-.08H4.28l-.043.081A17.697 17.697 0 002.194 20c0 2.985.74 5.8 2.042 8.273l.043.08H35.72l.043-.08A17.697 17.697 0 0037.806 20c0-2.985-.74-5.8-2.042-8.273zm-20.368 18.67h-.195l.05.19c.546 2.056 1.244 3.794 2.049 5.073.427.679.876 1.212 1.328 1.578.452.365.918.57 1.372.57.454 0 .92-.205 1.372-.57.452-.366.902-.899 1.328-1.578.805-1.28 1.502-3.016 2.049-5.074l.05-.188h-9.403zm-2.272.115l-.028-.114H5.55l.18.24a17.856 17.856 0 009.859 6.616l.38.097-.218-.326c-1.246-1.861-2.09-4.328-2.626-6.513zm11.126 6.513l-.218.326.38-.097a17.856 17.856 0 009.86-6.616l.179-.24h-7.547l-.028.114c-.537 2.184-1.38 4.653-2.626 6.513zM.15 20C.15 9.071 9.07.15 20 .15 30.929.15 39.85 9.07 39.85 20c0 10.929-8.92 19.85-19.85 19.85C9.071 39.85.15 30.93.15 20z" fill="#00B5E6" stroke="#fff" stroke-width=".3"/><path d="M11.647 24.688a1.022 1.022 0 01-2.044 0v-9.375a1.022 1.022 0 012.044 0v9.374zM19.02 22.344c0-.73-.593-1.322-1.322-1.322a3.37 3.37 0 01-3.366-3.366 3.37 3.37 0 013.366-3.365c.899 0 1.744.35 2.38.985a1.022 1.022 0 11-1.446 1.445 1.323 1.323 0 10-.935 2.257 3.37 3.37 0 013.366 3.366 3.37 3.37 0 01-3.365 3.365c-.9 0-1.744-.35-2.38-.985a1.022 1.022 0 111.445-1.445 1.323 1.323 0 002.257-.935zM30.438 22.344a3.37 3.37 0 01-3.365 3.365 3.37 3.37 0 01-3.366-3.365v-4.688a3.37 3.37 0 013.366-3.365 3.37 3.37 0 013.365 3.365v4.688zm-3.365-6.01c-.73 0-1.322.593-1.322 1.322v4.688a1.323 1.323 0 002.644 0v-4.688c0-.729-.593-1.322-1.322-1.322z" fill="#00B5E6" stroke="#fff" stroke-width=".3"/></svg><svg fill="none" viewBox="0 0 38 44" id="laboratory" xmlns="http://www.w3.org/2000/svg"><path d="M13.787 17.6a13.698 13.698 0 014.37-2.31V2h8.24v13.29c5.57 1.75 9.612 6.954 9.612 13.102 0 7.584-6.148 13.732-13.732 13.732a13.678 13.678 0 01-8.925-3.296M15.865 2H28.69" stroke="#fff" stroke-width="2.2" stroke-miterlimit="22.926" stroke-linecap="round" stroke-linejoin="round"/><path d="M13.97 26.832c.668.27 1.322.645 2.03.645 1.103 0 2.078-.916 3.182-.916s2.08.916 3.183.916c1.104 0 2.08-.916 3.183-.916 1.104 0 2.08.916 3.183.916 1.104 0 2.08-.916 3.183-.916 1.104 0 2.122.61 3.183.916M13.168 8.985v28.011c0 2.82-2.307 5.127-5.127 5.127s-5.126-2.307-5.126-5.127V8.986h10.253zM2 8.985h12.084M3.83 35.167h1.74M3.83 29.674h1.74M3.83 24.181h1.74M3.83 18.963h8.88" stroke="#fff" stroke-width="2.2" stroke-miterlimit="22.926" stroke-linecap="round" stroke-linejoin="round"/></svg><svg fill="none" viewBox="0 0 12 22" id="next" xmlns="http://www.w3.org/2000/svg"><path d="M1 21l9.9-9.9L1 1.202"/></svg><svg fill="none" viewBox="0 0 22 23" id="pdf" xmlns="http://www.w3.org/2000/svg"><path d="M2.41 11H0v7h1.288v-1.93H2.41c1.487 0 2.418-.97 2.418-2.53 0-1.57-.93-2.54-2.418-2.54zm-.072 3.75h-1.05v-2.43h1.05c.787 0 1.185.45 1.185 1.22 0 .76-.398 1.21-1.185 1.21zM5.985 18h2.529c1.82 0 3.07-1.38 3.07-3.5s-1.25-3.5-3.07-3.5H5.985v7zm1.288-1.33v-4.34H8.45c1.106 0 1.83.83 1.83 2.17 0 1.34-.724 2.17-1.83 2.17H7.273zM17 12.3V11h-4.207v7h1.289v-2.55h2.576v-1.3h-2.576V12.3H17z" fill="#00BAEC"/><path fill-rule="evenodd" clip-rule="evenodd" d="M5 2v6H3V0h13.089L22 6v17H3v-2h17V8h-6V2H5z" fill="#00BAEC"/></svg><svg fill="none" viewBox="0 0 39 39" id="pharmacy" xmlns="http://www.w3.org/2000/svg"><path d="M35.864 21.196C37.892 18.873 39 15.92 39 12.787c0-3.428-1.327-6.643-3.736-9.052C32.856 1.327 29.641 0 26.213 0c-3.429 0-6.644 1.327-9.052 3.735L3.735 17.16C1.327 19.57 0 22.784 0 26.213c0 3.428 1.327 6.643 3.735 9.052C6.145 37.673 9.36 39 12.787 39a12.71 12.71 0 008.41-3.136A10.347 10.347 0 0028.621 39C34.344 39 39 34.344 39 28.622c0-2.908-1.202-5.54-3.136-7.426zM18.884 5.46a10.29 10.29 0 017.329-3.021 10.29 10.29 0 017.328 3.021 10.29 10.29 0 013.022 7.328 10.29 10.29 0 01-2.634 6.92 10.316 10.316 0 00-5.307-1.464c-2.424 0-4.655.835-6.423 2.232l-9.166-9.165 5.851-5.851zm-6.097 31.104A10.29 10.29 0 015.46 33.54c-4.041-4.04-4.041-10.616 0-14.657l5.85-5.85 9.166 9.165a10.328 10.328 0 00-2.232 6.423c0 1.938.535 3.753 1.463 5.307a10.29 10.29 0 01-6.919 2.633zm7.894-7.941c0-3.965 2.92-7.26 6.722-7.848V36.47c-3.802-.588-6.722-3.883-6.722-7.847zm9.16 7.847V20.774c3.801.588 6.721 3.883 6.721 7.848 0 3.964-2.92 7.259-6.722 7.847zm-9.03-27.36a1.219 1.219 0 010-1.723 7.583 7.583 0 015.402-2.225c2.049 0 3.967.79 5.401 2.225a1.219 1.219 0 11-1.723 1.723 5.161 5.161 0 00-3.678-1.51 5.161 5.161 0 00-3.679 1.51 1.215 1.215 0 01-1.723 0z" fill="#fff"/></svg><svg fill="none" viewBox="0 0 16 16" id="plus" xmlns="http://www.w3.org/2000/svg"><path d="M7.967 0v16M16 7.967H0"/></svg><svg fill="none" viewBox="0 0 40 42" id="service" xmlns="http://www.w3.org/2000/svg"><mask id="la" fill="#fff"><path d="M38.614 34.549h-3.122v-2.773h1.735V26.23h-5.545v1.72h-2.773v-3.106a1.386 1.386 0 011.386-1.386h8.319A1.386 1.386 0 0140 24.844v8.319a1.386 1.386 0 01-1.386 1.386z"/><path d="M31.682 41.48h-8.319a1.386 1.386 0 01-1.386-1.386v-8.318a1.386 1.386 0 011.386-1.386h8.319a1.387 1.387 0 011.386 1.386v8.318a1.386 1.386 0 01-1.386 1.387zm-6.932-2.772h5.545v-5.545H24.75v5.545z"/><path fill-rule="evenodd" clip-rule="evenodd" d="M18.634 25.393a5.873 5.873 0 100-11.745 5.873 5.873 0 000 11.745zm0 3a8.873 8.873 0 100-17.745 8.873 8.873 0 000 17.745z"/><path d="M18.634 38.819h-3.09a2.77 2.77 0 01-1.194-.271l-.003-.002-.004-.002-.006-.002a2.768 2.768 0 01-1.51-1.955l-.707-3.494c-.63-.305-1.24-.651-1.826-1.037l-.005-.003-3.355 1.137c-.286.093-.586.14-.887.139a2.75 2.75 0 01-1.09-.219l-.012-.005a2.743 2.743 0 01-1.296-1.162L.377 26.285a2.768 2.768 0 01-.34-1.842 2.771 2.771 0 01.908-1.638l2.662-2.329a13.737 13.737 0 010-2.135l-2.662-2.33a2.771 2.771 0 01-.885-2.657l.01-.047c.062-.27.165-.532.307-.775l3.272-5.656a2.734 2.734 0 011.626-1.281l.01-.003a2.727 2.727 0 01.762-.103c.301-.001.601.046.887.139l3.355 1.137.005-.003a16.02 16.02 0 011.825-1.037l.707-3.494a2.77 2.77 0 011.48-1.94l.018-.008.006-.003.007-.004.006-.003.007-.003A2.77 2.77 0 0115.544 0h6.544a2.772 2.772 0 012.435 1.451l.036.068a2.796 2.796 0 01.246.713l.707 3.494c.63.305 1.24.651 1.825 1.037l.005.003 3.355-1.137a2.84 2.84 0 01.438-.105l.084-.012c.12-.015.243-.022.365-.022.274-.002.546.038.806.116l.014.004a2.736 2.736 0 011.58 1.267l3.27 5.656a2.773 2.773 0 01-.568 3.48l-2.63 2.304c.007.454.01.91.01 1.093 0 .169-.003.576-.009.998h-2.82a12.392 12.392 0 00-.152-3.168v-.007l.43-.375 3.341-2.939-3.272-5.656L26.83 9.87h-.014a12.988 12.988 0 00-3.743-2.177l-.984-4.921h-6.544l-.985 4.921a12.988 12.988 0 00-3.743 2.177h-.014L6.047 8.263l-3.272 5.656 3.341 2.94.43.374v.014a12.326 12.326 0 000 4.34l-.43.373-3.34 2.94 3.271 5.656 4.755-1.608h.014a12.984 12.984 0 003.743 2.177l.985 4.921h3.09v2.773z"/></mask><path d="M38.614 34.549h-3.122v-2.773h1.735V26.23h-5.545v1.72h-2.773v-3.106a1.386 1.386 0 011.386-1.386h8.319A1.386 1.386 0 0140 24.844v8.319a1.386 1.386 0 01-1.386 1.386z" fill="#00B5E5"/><path d="M31.682 41.48h-8.319a1.386 1.386 0 01-1.386-1.386v-8.318a1.386 1.386 0 011.386-1.386h8.319a1.387 1.387 0 011.386 1.386v8.318a1.386 1.386 0 01-1.386 1.387zm-6.932-2.772h5.545v-5.545H24.75v5.545z" fill="#00B5E5"/><path fill-rule="evenodd" clip-rule="evenodd" d="M18.634 25.393a5.873 5.873 0 100-11.745 5.873 5.873 0 000 11.745zm0 3a8.873 8.873 0 100-17.745 8.873 8.873 0 000 17.745z" fill="#00B5E6"/><path d="M18.634 38.819h-3.09a2.77 2.77 0 01-1.194-.271l-.003-.002-.004-.002-.006-.002a2.768 2.768 0 01-1.51-1.955l-.707-3.494c-.63-.305-1.24-.651-1.826-1.037l-.005-.003-3.355 1.137c-.286.093-.586.14-.887.139a2.75 2.75 0 01-1.09-.219l-.012-.005a2.743 2.743 0 01-1.296-1.162L.377 26.285a2.768 2.768 0 01-.34-1.842 2.771 2.771 0 01.908-1.638l2.662-2.329a13.737 13.737 0 010-2.135l-2.662-2.33a2.771 2.771 0 01-.885-2.657l.01-.047c.062-.27.165-.532.307-.775l3.272-5.656a2.734 2.734 0 011.626-1.281l.01-.003a2.727 2.727 0 01.762-.103c.301-.001.601.046.887.139l3.355 1.137.005-.003a16.02 16.02 0 011.825-1.037l.707-3.494a2.77 2.77 0 011.48-1.94l.018-.008.006-.003.007-.004.006-.003.007-.003A2.77 2.77 0 0115.544 0h6.544a2.772 2.772 0 012.435 1.451l.036.068a2.796 2.796 0 01.246.713l.707 3.494c.63.305 1.24.651 1.825 1.037l.005.003 3.355-1.137a2.84 2.84 0 01.438-.105l.084-.012c.12-.015.243-.022.365-.022.274-.002.546.038.806.116l.014.004a2.736 2.736 0 011.58 1.267l3.27 5.656a2.773 2.773 0 01-.568 3.48l-2.63 2.304c.007.454.01.91.01 1.093 0 .169-.003.576-.009.998h-2.82a12.392 12.392 0 00-.152-3.168v-.007l.43-.375 3.341-2.939-3.272-5.656L26.83 9.87h-.014a12.988 12.988 0 00-3.743-2.177l-.984-4.921h-6.544l-.985 4.921a12.988 12.988 0 00-3.743 2.177h-.014L6.047 8.263l-3.272 5.656 3.341 2.94.43.374v.014a12.326 12.326 0 000 4.34l-.43.373-3.34 2.94 3.271 5.656 4.755-1.608h.014a12.984 12.984 0 003.743 2.177l.985 4.921h3.09v2.773z" fill="#00B5E5"/><path d="M38.614 34.549h-3.122v-2.773h1.735V26.23h-5.545v1.72h-2.773v-3.106a1.386 1.386 0 011.386-1.386h8.319A1.386 1.386 0 0140 24.844v8.319a1.386 1.386 0 01-1.386 1.386z" stroke="#fff" stroke-width=".6" mask="url(#la)"/><path d="M31.682 41.48h-8.319a1.386 1.386 0 01-1.386-1.386v-8.318a1.386 1.386 0 011.386-1.386h8.319a1.387 1.387 0 011.386 1.386v8.318a1.386 1.386 0 01-1.386 1.387zm-6.932-2.772h5.545v-5.545H24.75v5.545z" stroke="#fff" stroke-width=".6" mask="url(#la)"/><path clip-rule="evenodd" d="M18.634 25.393a5.873 5.873 0 100-11.745 5.873 5.873 0 000 11.745zm0 3a8.873 8.873 0 100-17.745 8.873 8.873 0 000 17.745z" stroke="#fff" stroke-width=".6" mask="url(#la)"/><path d="M18.634 38.819h-3.09a2.77 2.77 0 01-1.194-.271l-.003-.002-.004-.002-.006-.002a2.768 2.768 0 01-1.51-1.955l-.707-3.494c-.63-.305-1.24-.651-1.826-1.037l-.005-.003-3.355 1.137c-.286.093-.586.14-.887.139a2.75 2.75 0 01-1.09-.219l-.012-.005a2.743 2.743 0 01-1.296-1.162L.377 26.285a2.768 2.768 0 01-.34-1.842 2.771 2.771 0 01.908-1.638l2.662-2.329a13.737 13.737 0 010-2.135l-2.662-2.33a2.771 2.771 0 01-.885-2.657l.01-.047c.062-.27.165-.532.307-.775l3.272-5.656a2.734 2.734 0 011.626-1.281l.01-.003a2.727 2.727 0 01.762-.103c.301-.001.601.046.887.139l3.355 1.137.005-.003a16.02 16.02 0 011.825-1.037l.707-3.494a2.77 2.77 0 011.48-1.94l.018-.008.006-.003.007-.004.006-.003.007-.003A2.77 2.77 0 0115.544 0h6.544a2.772 2.772 0 012.435 1.451l.036.068a2.796 2.796 0 01.246.713l.707 3.494c.63.305 1.24.651 1.825 1.037l.005.003 3.355-1.137a2.84 2.84 0 01.438-.105l.084-.012c.12-.015.243-.022.365-.022.274-.002.546.038.806.116l.014.004a2.736 2.736 0 011.58 1.267l3.27 5.656a2.773 2.773 0 01-.568 3.48l-2.63 2.304c.007.454.01.91.01 1.093 0 .169-.003.576-.009.998h-2.82a12.392 12.392 0 00-.152-3.168v-.007l.43-.375 3.341-2.939-3.272-5.656L26.83 9.87h-.014a12.988 12.988 0 00-3.743-2.177l-.984-4.921h-6.544l-.985 4.921a12.988 12.988 0 00-3.743 2.177h-.014L6.047 8.263l-3.272 5.656 3.341 2.94.43.374v.014a12.326 12.326 0 000 4.34l-.43.373-3.34 2.94 3.271 5.656 4.755-1.608h.014a12.984 12.984 0 003.743 2.177l.985 4.921h3.09v2.773z" stroke="#fff" stroke-width=".6" mask="url(#la)"/></svg><svg fill="none" viewBox="0 0 42 43" id="storage" xmlns="http://www.w3.org/2000/svg"><path d="M28.754 4.363a4.615 4.615 0 00-3.2 0l-8.835 3.268a.513.513 0 00-.334.48v5.73a9.741 9.741 0 00-3.077 0V8.108a3.59 3.59 0 012.344-3.366l8.835-3.266a7.692 7.692 0 015.334 0l8.834 3.266A3.59 3.59 0 0141 8.109v21.887a3.59 3.59 0 01-2.345 3.368l-8.242 3.044c.216-.599.33-1.239.33-1.901v-1.5l6.846-2.529a.512.512 0 00.334-.482V8.109a.514.514 0 00-.334-.48l-8.835-3.266zm-8.226 8.062a1.539 1.539 0 111.005-2.909l5.453 1.887a.514.514 0 00.334 0l5.436-1.887a1.54 1.54 0 111.01 2.909l-5.437 1.885a3.59 3.59 0 01-2.349 0l-5.454-1.885h.002zM8.221 26.784a1.539 1.539 0 011.005-2.909l5.62 1.945 5.604-1.943a1.538 1.538 0 111.005 2.907l-5.07 1.758v5.538a1.538 1.538 0 01-3.077 0v-5.538L8.22 26.784zm9.292-10.538a7.692 7.692 0 00-5.334 0l-8.834 3.266A3.59 3.59 0 001 22.878v11.63a3.59 3.59 0 002.345 3.369l8.835 3.264a7.692 7.692 0 005.333 0l8.835-3.266a3.59 3.59 0 002.344-3.368V22.876a3.59 3.59 0 00-2.344-3.366l-8.835-3.266v.002zm-4.267 2.886a4.615 4.615 0 013.2 0l8.835 3.266a.513.513 0 01.334.48v11.63a.513.513 0 01-.334.483l-8.835 3.264a4.615 4.615 0 01-3.2 0l-8.835-3.266a.513.513 0 01-.334-.482V22.876a.513.513 0 01.334-.48l8.835-3.266v.002z" fill="#00B5E5" stroke="#fff" stroke-width=".8"/></svg><svg fill="none" viewBox="0 0 40 40" id="support" xmlns="http://www.w3.org/2000/svg"><path d="M30.57 13.846v.2h5.322a3.912 3.912 0 013.908 3.908V30.77a3.913 3.913 0 01-3.906 3.908H34.678V38.46a1.34 1.34 0 01-2.142 1.071h0L26.1 34.717l-.053-.04h-8.093a3.912 3.912 0 01-3.908-3.908V26.139l-.32.24-5.23 3.922a1.338 1.338 0 01-2.142-1.07v-4.816H4.615A4.415 4.415 0 01.2 20V4.615A4.415 4.415 0 014.615.2h21.539a4.415 4.415 0 014.415 4.415v9.231zM9.03 26.154v.4l.32-.24 5.74-4.308s0 0 0 0c.231-.174.513-.268.802-.268h10.262A1.739 1.739 0 0027.892 20V4.615a1.738 1.738 0 00-1.738-1.738H4.615a1.738 1.738 0 00-1.738 1.738V20a1.738 1.738 0 001.738 1.738h3.077a1.338 1.338 0 011.339 1.339v3.077zm22.65 9.39l.32.24V33.34A1.339 1.339 0 0133.339 32h2.553a1.23 1.23 0 001.231-1.23V17.953a1.23 1.23 0 00-1.23-1.23h-5.324V20a4.415 4.415 0 01-4.415 4.415h-.002l-9.23.068-.199.002V30.77a1.23 1.23 0 001.23 1.224h8.538c.29 0 .571.094.803.267h0l4.386 3.284z" fill="#00B5E6" stroke="#fff" stroke-width=".4"/><path d="M7.892 7.892h14.985v2.677H7.892V7.892zM7.892 14.046h7.293v2.677H7.892v-2.677z" fill="#00B5E6" stroke="#fff" stroke-width=".4"/></svg><svg fill="none" viewBox="0 0 44 40" id="veterinary" xmlns="http://www.w3.org/2000/svg"><path d="M30.913 25.836a5.5 5.5 0 01-1.952-2.837 7.154 7.154 0 00-13.75 0 5.5 5.5 0 01-1.952 2.837 7.138 7.138 0 00-2.802 5.873c.101 3.783 3.188 6.862 6.97 6.955a7.133 7.133 0 002.725-.465 5.43 5.43 0 013.868 0 7.135 7.135 0 002.724.465c3.783-.093 6.87-3.172 6.97-6.955a7.139 7.139 0 00-2.801-5.873zM6.093 23.44c2.26 0 4.093-2.344 4.093-5.237 0-2.893-1.832-5.238-4.093-5.238C3.833 12.965 2 15.31 2 18.203c0 2.893 1.833 5.238 4.093 5.238zM37.907 23.44c2.26 0 4.093-2.344 4.093-5.237 0-2.893-1.832-5.238-4.093-5.238-2.26 0-4.093 2.345-4.093 5.238 0 2.893 1.833 5.238 4.093 5.238zM15.37 12.172c2.26 0 4.093-2.345 4.093-5.238 0-2.892-1.833-5.237-4.093-5.237s-4.093 2.345-4.093 5.237c0 2.893 1.832 5.238 4.093 5.238zM28.92 12.172c2.26 0 4.093-2.345 4.093-5.238 0-2.892-1.832-5.237-4.093-5.237-2.26 0-4.093 2.345-4.093 5.237 0 2.893 1.833 5.238 4.093 5.238z" stroke="#fff" stroke-width="2.5" stroke-miterlimit="10"/></svg><svg fill="none" viewBox="0 0 40 39" id="warranty" xmlns="http://www.w3.org/2000/svg"><path d="M33.343 11.214v.146l.138.045c6.53 2.116 8.508 10.463 3.51 15.264l-.061.06v9.863c0 .68-.553 1.234-1.235 1.234h-.035c-.109 0-.157 0-.24-.023-.1-.03-.248-.096-.547-.258-.352-.191-.89-.5-1.767-1.005-.602-.346-1.363-.785-2.334-1.34l-.1-.056-.099.057-4.31 2.463a1.236 1.236 0 01-1.848-1.072v-5.223H3.116A2.92 2.92 0 01.2 28.453V3.116A2.92 2.92 0 013.116.2h27.31a2.92 2.92 0 012.917 2.916v8.098zm-2.67-.252h.2V3.116c0-.246-.2-.446-.447-.446H3.116c-.246 0-.446.2-.446.446v25.337c0 .246.2.446.446.446h21.3v-2.171l-.062-.059a9.101 9.101 0 01-2.809-6.58c0-5.032 4.095-9.127 9.128-9.127zm3.488 23.33l.3.171v-.344l-.001-5.42v-.3l-.277.115a9.118 9.118 0 01-7.02 0l-.278-.116V34.463l.3-.17 2.875-1.644c.38-.217.846-.217 1.225 0l2.876 1.643zm-4.715-13.784l.167.11.11-.166 2.075-3.11h0a1.235 1.235 0 012.055 1.37l.156.104-.156-.104-2.87 4.304c-.238.357-.63.55-1.03.55-.13 0-.218-.007-.313-.036a1.82 1.82 0 01-.399-.194c-.235-.141-.556-.358-1.054-.694-.29-.196-.64-.432-1.07-.718a1.235 1.235 0 01-.342-1.713l-.166-.11.166.11a1.235 1.235 0 011.713-.342l.958.639zm-5.43-.419a6.665 6.665 0 006.657 6.658 6.665 6.665 0 006.657-6.658 6.665 6.665 0 00-6.657-6.657 6.665 6.665 0 00-6.658 6.657z" fill="#00B5E6" stroke="#fff" stroke-width=".4"/><path fill="#00B5E6" stroke="#fff" stroke-width=".4" d="M7.734 7.734h14.13v2.649H7.734zM7.734 13.833h9.914v2.65H7.734v-2.65zM7.734 19.932h6.327v2.649H7.734z"/></svg></svg>